# xmcd
#
# Track frame offsets:
#	150
#	21367
#	33187
#	51335
#	68595
#	82262
#	102235
#	121710
#	137092
#	152345
#	168107
#	186442
#
# Disc length: 2561 seconds
#
# Revision: 1
# Processed by: cddbd v1.5PL3 Copyright (c) Steve Scherf et al.
# Submitted via: CDex 1.50Beta5
#
DISCID=9609ff0c
DTITLE=Various Artist - Millennium Carol1
DYEAR=1900
DGENRE=
TTITLE0=White Christmas(Original Version)
TTITLE1=Silent Night
TTITLE2=The Christmas Song
TTITLE3=The Little Drummer Boy
TTITLE4=Ave Maria
TTITLE5=My First Christmas
TTITLE6=Rainy Christmas
TTITLE7=Silver Bells
TTITLE8=Grown up(Christmas List)
TTITLE9=White Christmas For You
TTITLE10=O Holy Night
TTITLE11=God Rest Ye merry,Gentlemen
EXTD=
EXTT0=
EXTT1=
EXTT2=
EXTT3=
EXTT4=
EXTT5=
EXTT6=
EXTT7=
EXTT8=
EXTT9=
EXTT10=
EXTT11=
PLAYORDER=
